<?xml version="1.0" encoding="UTF-8" standalone="no"?><!DOCTYPE svg PUBLIC "-//W3C//DTD SVG 1.1//EN" "http://www.w3.org/Graphics/SVG/1.1/DTD/svg11.dtd"><svg fill="#FF0000" width="100%" height="100%" viewBox="0 0 24 24" version="1.1" xmlns="http://www.w3.org/2000/svg" xmlns:xlink="http://www.w3.org/1999/xlink" xml:space="preserve" xmlns:serif="http://www.serif.com/" style="fill-rule:evenodd;clip-rule:evenodd;stroke-linejoin:round;stroke-miterlimit:2;"><g id="Icon"><path d="M14.806,10.949l-3.047,-1.759c-0.835,-0.482 -1.875,0.12 -1.875,1.083l-0,3.519c-0,0.963 1.04,1.564 1.875,1.081c-0,0 3.047,-1.759 3.047,-1.759c0.832,-0.48 0.832,-1.685 -0,-2.165l-0,0Zm-3.422,2.409l2.297,-1.326l-2.297,-1.326l-0,2.652Z"/><path d="M15.713,8.324c0.952,0.945 1.537,2.256 1.537,3.708c0,1.451 -0.585,2.763 -1.537,3.707c-0.295,0.291 -0.297,0.766 -0.005,1.061c0.291,0.294 0.766,0.296 1.06,0.004c1.227,-1.215 1.982,-2.904 1.982,-4.772c0,-1.869 -0.755,-3.557 -1.982,-4.773c-0.294,-0.291 -0.769,-0.289 -1.06,0.005c-0.292,0.294 -0.29,0.769 0.005,1.06Z"/><path d="M8.288,15.739c-0.953,-0.944 -1.538,-2.256 -1.538,-3.707c0,-1.451 0.585,-2.763 1.538,-3.707c0.294,-0.292 0.296,-0.767 0.005,-1.061c-0.292,-0.294 -0.767,-0.296 -1.061,-0.005c-1.227,1.216 -1.982,2.904 -1.982,4.773c0,1.869 0.755,3.557 1.982,4.773c0.294,0.291 0.769,0.289 1.061,-0.005c0.291,-0.294 0.289,-0.769 -0.005,-1.061Z"/><path d="M18.54,5.492c1.674,1.675 2.71,3.987 2.71,6.54c0,2.553 -1.036,4.865 -2.71,6.54c-0.293,0.292 -0.293,0.768 -0,1.06c0.292,0.293 0.768,0.293 1.06,0c1.946,-1.945 3.15,-4.633 3.15,-7.6c0,-2.967 -1.204,-5.655 -3.15,-7.6c-0.292,-0.293 -0.768,-0.293 -1.06,-0c-0.293,0.292 -0.293,0.768 -0,1.06Z"/><path d="M5.461,18.572c-1.674,-1.675 -2.711,-3.988 -2.711,-6.54c0,-2.553 1.036,-4.865 2.711,-6.54c0.292,-0.292 0.292,-0.768 -0,-1.06c-0.293,-0.293 -0.768,-0.293 -1.061,-0c-1.946,1.946 -3.15,4.633 -3.15,7.6c0,2.966 1.204,5.654 3.15,7.6c0.293,0.293 0.768,0.293 1.061,0.001c0.292,-0.293 0.292,-0.768 -0,-1.061Z"/></g></svg>