<?xml version="1.0" encoding="UTF-8"?>
<svg width="700pt" height="700pt" version="1.1" viewBox="0 0 700 700" xmlns="http://www.w3.org/2000/svg">
 <g>
  <path fill="#5e5e5e" d="m186.67 367.5h121.8-0.003906c-14.844-26.773-22.629-56.887-22.629-87.5s7.7852-60.727 22.629-87.5h-121.8c-31.262 0-60.148 16.676-75.777 43.75-15.633 27.074-15.633 60.426 0 87.5 15.629 27.074 44.516 43.75 75.777 43.75z"/>
  <path fill="#c6c6c6" d="m466.67 145.83c-35.586 0-69.711 14.137-94.871 39.297s-39.297 59.289-39.297 94.871 14.137 69.711 39.297 94.871 59.285 39.297 94.871 39.297c35.582 0 69.707-14.137 94.867-39.297 25.164-25.16 39.297-59.289 39.297-94.871-0.042969-35.57-14.191-69.672-39.344-94.824-25.152-25.148-59.25-39.301-94.82-39.344zm42 143.5-46.668 35c-1.9961 1.5625-4.4688 2.3867-7 2.3359-1.7734-0.027344-3.5234-0.42578-5.1328-1.168-3.9609-2.0117-6.4766-6.0586-6.5352-10.5v-70c0-4.418 2.4961-8.457 6.4492-10.434 3.9531-1.9766 8.6836-1.5508 12.219 1.1016l46.668 35c2.9375 2.2031 4.6641 5.6602 4.6641 9.332s-1.7266 7.1289-4.6641 9.332z"/>
 </g>
</svg>
