<svg xmlns="http://www.w3.org/2000/svg" width="24" height="24" fill="none"><path fill="#fff" fill-rule="evenodd" d="M5.004 4.132a1 1 0 0 1 .97-.012L12 7.364l6.026-3.244a1 1 0 0 1 .97.012l3.5 2A1 1 0 0 1 23 7v7.5a1 1 0 0 1-.59.912l-10 4.5a1 1 0 0 1-.82 0l-10-4.5A1 1 0 0 1 1 14.5V7a1 1 0 0 1 .504-.868l3.5-2Zm.51 2.012L3 7.58v6.273l9 4.05 9-4.05V7.58l-2.514-1.436-6.012 3.236a1 1 0 0 1-.948 0L5.514 6.144Z" clip-rule="evenodd"/><path fill="#fff" fill-rule="evenodd" d="M9.5 12.5h-5v-2h5v2Z" clip-rule="evenodd"/><path fill="#fff" fill-rule="evenodd" d="M8 9v5H6V9h2zm9.5 5h-2v-2h2v2zm2-3h-2V9h2v2z" clip-rule="evenodd"/></svg>