<?xml version="1.0" encoding="UTF-8"?>
<svg fill="#fff" width="700pt" height="700pt" version="1.1" viewBox="0 0 700 700" xmlns="http://www.w3.org/2000/svg">
 <g>
  <path d="m554.75 80.5h-409.5c-17.5 0-33.25 14-33.25 33.25v334.25c0 17.5 14 33.25 33.25 33.25h411.25c17.5 0 33.25-14 33.25-33.25v-336c-1.75-17.5-15.75-31.5-35-31.5zm-12.25 348.25c0 3.5-1.75 5.25-5.25 5.25h-374.5c-3.5 0-5.25-1.75-5.25-5.25v-297.5c0-3.5 1.75-5.25 5.25-5.25h374.5c3.5 0 5.25 1.75 5.25 5.25z"/>
  <path d="m486.5 283.5h-134.75c-8.75 0-15.75 8.75-15.75 17.5v80.5c0 10.5 7 17.5 15.75 17.5h134.75c8.75 0 15.75-8.75 15.75-17.5v-80.5c0-10.5-7-17.5-15.75-17.5z"/>
 </g>
</svg>
