<?xml version="1.0" encoding="UTF-8" standalone="no"?> <svg width="64" height="64" viewBox="0 0 64 64" fill="none" xmlns="http://www.w3.org/2000/svg">
<path d="M15.79 22.54H33.79C34.1146 22.5296 34.4223 22.3933 34.6482 22.16C34.874 21.9267 35.0002 21.6147 35 21.29V11C35 10.6685 34.8683 10.3505 34.6339 10.1161C34.3995 9.8817 34.0816 9.75 33.75 9.75H15.75C15.4255 9.76039 15.1177 9.89666 14.8919 10.13C14.6661 10.3633 14.5399 10.6753 14.54 11V21.29C14.54 21.6215 14.6717 21.9395 14.9062 22.1739C15.1406 22.4083 15.4585 22.54 15.79 22.54ZM17 12.25H32.5V20H17V12.25Z" fill="#fff"/>
<path d="M9.56995 28.6799H17.9199C18.2515 28.6799 18.5694 28.5482 18.8038 28.3138C19.0382 28.0794 19.1699 27.7615 19.1699 27.4299C19.1699 27.0984 19.0382 26.7805 18.8038 26.546C18.5694 26.3116 18.2515 26.1799 17.9199 26.1799H9.56995C9.23843 26.1799 8.92048 26.3116 8.68606 26.546C8.45164 26.7805 8.31995 27.0984 8.31995 27.4299C8.31995 27.7615 8.45164 28.0794 8.68606 28.3138C8.92048 28.5482 9.23843 28.6799 9.56995 28.6799V28.6799Z" fill="#fff"/>
<path d="M57 10.75H47.31V7C47.31 5.87283 46.8622 4.79183 46.0652 3.9948C45.2682 3.19777 44.1872 2.75 43.06 2.75H7C5.87364 2.75264 4.79417 3.20126 3.99771 3.99771C3.20126 4.79417 2.75264 5.87364 2.75 7V57C2.75264 58.1264 3.20126 59.2058 3.99771 60.0023C4.79417 60.7987 5.87364 61.2474 7 61.25H51.25C53.9022 61.25 56.4457 60.1964 58.3211 58.3211C60.1964 56.4457 61.25 53.9022 61.25 51.25V15C61.2474 13.8736 60.7987 12.7942 60.0023 11.9977C59.2058 11.2013 58.1264 10.7526 57 10.75ZM44.81 12V58.75H7C6.53668 58.7474 6.09309 58.5622 5.76546 58.2345C5.43784 57.9069 5.25263 57.4633 5.25 57V7C5.25263 6.53668 5.43784 6.09309 5.76546 5.76546C6.09309 5.43784 6.53668 5.25263 7 5.25H43.06C43.5241 5.25 43.9692 5.43437 44.2974 5.76256C44.6256 6.09075 44.81 6.53587 44.81 7V12ZM58.75 51.25C58.75 53.2391 57.9598 55.1468 56.5533 56.5533C55.1468 57.9598 53.2391 58.75 51.25 58.75H47.31V13.25H57C57.4633 13.2526 57.9069 13.4378 58.2345 13.7655C58.5622 14.0931 58.7474 14.5367 58.75 15V51.25Z" fill="#fff"/>
<path d="M39.5699 31.6599H9.56995C9.40579 31.6599 9.24325 31.6922 9.09159 31.7551C8.93993 31.8179 8.80214 31.91 8.68606 32.026C8.56999 32.1421 8.47792 32.2799 8.4151 32.4316C8.35228 32.5832 8.31995 32.7458 8.31995 32.9099C8.31995 33.0741 8.35228 33.2366 8.4151 33.3883C8.47792 33.5399 8.56999 33.6777 8.68606 33.7938C8.80214 33.9099 8.93993 34.0019 9.09159 34.0648C9.24325 34.1276 9.40579 34.1599 9.56995 34.1599H39.5699C39.9015 34.1599 40.2194 34.0282 40.4538 33.7938C40.6883 33.5594 40.8199 33.2414 40.8199 32.9099C40.8199 32.5784 40.6883 32.2604 40.4538 32.026C40.2194 31.7916 39.9015 31.6599 39.5699 31.6599V31.6599Z" fill="#fff"/>
<path d="M39.5699 37.1499H9.56995C9.23843 37.1499 8.92048 37.2816 8.68606 37.516C8.45164 37.7504 8.31995 38.0684 8.31995 38.3999C8.31995 38.7314 8.45164 39.0494 8.68606 39.2838C8.92048 39.5182 9.23843 39.6499 9.56995 39.6499H39.5699C39.9015 39.6499 40.2194 39.5182 40.4538 39.2838C40.6883 39.0494 40.8199 38.7314 40.8199 38.3999C40.8199 38.0684 40.6883 37.7504 40.4538 37.516C40.2194 37.2816 39.9015 37.1499 39.5699 37.1499V37.1499Z" fill="#fff"/>
<path d="M39.5699 42.6399H9.56995C9.23843 42.6399 8.92048 42.7716 8.68606 43.006C8.45164 43.2404 8.31995 43.5584 8.31995 43.8899C8.31995 44.2214 8.45164 44.5394 8.68606 44.7738C8.92048 45.0082 9.23843 45.1399 9.56995 45.1399H39.5699C39.9015 45.1399 40.2194 45.0082 40.4538 44.7738C40.6883 44.5394 40.8199 44.2214 40.8199 43.8899C40.8199 43.5584 40.6883 43.2404 40.4538 43.006C40.2194 42.7716 39.9015 42.6399 39.5699 42.6399V42.6399Z" fill="#fff"/>
<path d="M39.5699 48.1201H9.56995C9.23843 48.1201 8.92048 48.2518 8.68606 48.4862C8.45164 48.7207 8.31995 49.0386 8.31995 49.3701C8.31995 49.7016 8.45164 50.0196 8.68606 50.254C8.92048 50.4884 9.23843 50.6201 9.56995 50.6201H39.5699C39.9015 50.6201 40.2194 50.4884 40.4538 50.254C40.6883 50.0196 40.8199 49.7016 40.8199 49.3701C40.8199 49.0386 40.6883 48.7207 40.4538 48.4862C40.2194 48.2518 39.9015 48.1201 39.5699 48.1201V48.1201Z" fill="#fff"/>
<path d="M39.5699 53.6101H9.56995C9.23843 53.6101 8.92048 53.7418 8.68606 53.9762C8.45164 54.2106 8.31995 54.5286 8.31995 54.8601C8.31995 55.1916 8.45164 55.5096 8.68606 55.744C8.92048 55.9784 9.23843 56.1101 9.56995 56.1101H39.5699C39.9015 56.1101 40.2194 55.9784 40.4538 55.744C40.6883 55.5096 40.8199 55.1916 40.8199 54.8601C40.8199 54.5286 40.6883 54.2106 40.4538 53.9762C40.2194 53.7418 39.9015 53.6101 39.5699 53.6101V53.6101Z" fill="#fff"/>
</svg>
