<?xml version="1.0" encoding="UTF-8"?>
<!DOCTYPE svg PUBLIC "-//W3C//DTD SVG 1.1//EN" "http://www.w3.org/Graphics/SVG/1.1/DTD/svg11.dtd">
<!-- Creator: CorelDRAW X5 -->
<svg xmlns="http://www.w3.org/2000/svg" xml:space="preserve" width="6.72in" height="6.72in" style="shape-rendering:geometricPrecision; text-rendering:geometricPrecision; image-rendering:optimizeQuality; fill-rule:evenodd; clip-rule:evenodd"
viewBox="0 0 6720 6720"
 xmlns:xlink="http://www.w3.org/1999/xlink">
 <defs>
  <style type="text/css">
   <![CDATA[
    .fil1 {fill:none}
    .fil0 {fill:white;fill-rule:nonzero}
   ]]>
  </style>
 </defs>
 <g id="Layer_x0020_1">
  <metadata id="CorelCorpID_0Corel-Layer"/>
  <g id="_375705752">
   <path class="fil0" d="M3328 3905c40,18 87,1 106,-39 18,-40 1,-87 -39,-106 -1536,-707 -1608,-2420 -1604,-2800l1571 0c44,0 80,-36 80,-80 0,-44 -36,-80 -80,-80l-1648 0 0 0c-42,0 -78,33 -80,76l80 4 -80 -4c0,6 -135,2187 1695,3029z"/>
   <path class="fil0" d="M3328 3760c-40,18 -58,66 -39,106 18,40 66,58 106,39 1829,-842 1695,-3023 1695,-3029l-80 4 80 -4c-2,-43 -38,-76 -80,-76l0 0 -1648 0c-44,0 -80,36 -80,80 0,44 36,80 80,80l1571 0c3,381 -69,2094 -1604,2800z"/>
   <path class="fil0" d="M1992 2665c43,-8 72,-49 64,-93 -8,-43 -49,-72 -93,-64 -143,27 -286,-11 -401,-94 -116,-84 -204,-214 -237,-371 -33,-157 -4,-312 69,-435 72,-122 187,-213 329,-246 43,-10 70,-53 60,-96 -10,-43 -53,-70 -96,-60 -186,43 -337,162 -431,321 -92,156 -129,351 -87,549 41,198 153,362 300,468 149,108 335,156 522,121z"/>
   <path class="fil0" d="M4757 2492c-43,-8 -85,21 -93,64 -8,43 21,85 64,93 188,35 373,-14 522,-121 147,-106 259,-271 300,-468 41,-198 5,-393 -87,-549 -94,-158 -244,-277 -431,-321 -43,-10 -86,17 -96,60 -10,43 17,86 60,96 142,33 257,124 329,246 73,123 101,278 69,435 -33,157 -121,288 -237,371 -115,83 -257,121 -401,94z"/>
   <path class="fil0" d="M3435 3838c0,-44 -36,-80 -80,-80 -44,0 -80,36 -80,80l0 1118c0,44 36,80 80,80 44,0 80,-36 80,-80l0 -1118z"/>
   <path class="fil0" d="M2380 4893l1952 0c44,0 80,36 80,80l0 867c0,44 -36,80 -80,80l-1952 0c-44,0 -80,-36 -80,-80l0 -867c0,-44 36,-80 80,-80zm1872 160l-1792 0 0 707 1792 0 0 -707z"/>
  </g>
 </g>
 <rect class="fil1" width="6720" height="6720"/>
</svg>
